Coordinates
version=1
nRows=32
nColumns=22
inDegrees=yes

Units are S.I. units (second, meters, Newtons, ...)
If the header above contains a line with 'inDegrees', this indicates whether rotational values are in degrees (yes) or radians (no).

endheader
time	pelvis_tilt	pelvis_list	pelvis_rotation	pelvis_tx	pelvis_ty	pelvis_tz	hip_flexion_r	hip_adduction_r	hip_rotation_r	knee_angle_r	ankle_angle_r	subtalar_angle_r	hip_flexion_l	hip_adduction_l	hip_rotation_l	knee_angle_l	ankle_angle_l	subtalar_angle_l	lumbar_extension	lumbar_bending	lumbar_rotation
      2.73000000	     -0.27022649	     -1.84079820	    -28.05499496	     -0.61214181	      0.98557931	     -0.27433025	     24.77987141	      5.23169867	    -17.45337607	    -18.09715164	      1.56464287	     -0.79870363	    -11.24873367	     -0.43083754	    -14.64944746	    -21.72882100	     17.07070759	      9.11518246	    -15.13086419	      3.85544015	     -4.58560118
      2.74000000	     -0.41840986	     -2.10929267	    -28.13440639	     -0.60358816	      0.98512646	     -0.26968482	     24.81977250	      5.51981455	    -17.24868584	    -19.09978877	      0.94522728	     -2.11632852	    -11.35146520	     -0.82965531	    -14.34494943	    -22.66731820	     16.52759281	      9.80000574	    -14.91318425	      4.35879124	     -4.63391512
      2.75000000	     -0.52890694	     -2.37122986	    -28.28795908	     -0.59504860	      0.98489783	     -0.26485311	     24.84079803	      5.79334004	    -17.02302191	    -20.17061813	      0.63397296	     -3.42269072	    -11.42882427	     -1.20322797	    -14.08819066	    -23.70937754	     15.76042804	     10.56945053	    -14.73920303	      4.81487335	     -4.63561958
      2.76000000	     -0.65591129	     -2.64691157	    -28.49748217	     -0.58659157	      0.98485084	     -0.25987828	     24.84017831	      6.11317809	    -16.74279279	    -21.20268776	      0.46289285	     -4.52712652	    -11.40078504	     -1.60525320	    -13.82128526	    -24.92157124	     14.86246050	     11.33486732	    -14.57357291	      5.28036902	     -4.57933521
      2.77000000	     -0.76545462	     -2.91233006	    -28.76129249	     -0.57822384	      0.98501169	     -0.25476074	     24.78747708	      6.44734004	    -16.41038736	    -22.18328226	      0.48296885	     -5.49384559	    -11.29244994	     -1.99417116	    -13.52974803	    -26.28053418	     13.76300513	     12.14042368	    -14.43725803	      5.70685969	     -4.46526598
      2.78000000	     -0.86135465	     -3.16187153	    -29.06152714	     -0.56997900	      0.98535983	     -0.24954083	     24.66939611	      6.79333821	    -16.03647965	    -23.06781933	      0.63682920	     -6.28510124	    -11.07394647	     -2.38066284	    -13.22381913	    -27.81717193	     12.46523130	     12.92173248	    -14.32709911	      6.09476645	     -4.33019171
      2.79000000	     -0.93040207	     -3.38766126	    -29.37223199	     -0.56187174	      0.98588563	     -0.24424742	     24.46442893	      7.12897918	    -15.66735717	    -23.83119147	      0.92399158	     -6.97499670	    -10.74507545	     -2.75558271	    -12.86130713	    -29.52991138	     10.97951233	     13.71589902	    -14.24944659	      6.42603342	     -4.18548863
      2.80000000	     -0.99409492	     -3.57823108	    -29.68357249	     -0.55392080	      0.98653284	     -0.23893460	     24.19307075	      7.45068789	    -15.29905844	    -24.45690039	      1.27102825	     -7.53805489	    -10.26771469	     -3.12608120	    -12.46014541	    -31.42782186	      9.33107059	     14.42016588	    -14.17745844	      6.70970450	     -4.05623624
      2.81000000	     -1.04144663	     -3.74290768	    -29.96643213	     -0.54611211	      0.98729399	     -0.23364293	     23.83853444	      7.74493927	    -14.98211619	    -24.94365718	      1.70742733	     -8.00731111	     -9.65829997	     -3.49500954	    -11.98184200	    -33.49190710	      7.57307639	     15.04051481	    -14.12253643	      6.95005250	     -3.95022843
      2.82000000	     -1.08520427	     -3.88589535	    -30.21315574	     -0.53845679	      0.98812848	     -0.22841133	     23.41888266	      8.01634337	    -14.71590017	    -25.29896535	      2.19289469	     -8.37434763	     -8.90626139	     -3.87267004	    -11.43770178	    -35.71318107	      5.77333819	     15.52222860	    -14.07476052	      7.16312472	     -3.87644987
      2.83000000	     -1.13152277	     -4.00557758	    -30.42114204	     -0.53095856	      0.98899800	     -0.22325414	     22.94808144	      8.26360129	    -14.50033756	    -25.53123118	      2.72862193	     -8.66904195	     -8.00968130	     -4.25660927	    -10.83450371	    -38.07268490	      4.01563900	     15.89162173	    -14.02462311	      7.34990453	     -3.81930701
      2.84000000	     -1.18559639	     -4.11199015	    -30.58635709	     -0.52361678	      0.98987816	     -0.21819989	     22.44364779	      8.49399408	    -14.33342840	    -25.66568056	      3.27789371	     -8.89342242	     -6.97690439	     -4.65140176	    -10.17588474	    -40.54552152	      2.37541366	     16.13570938	    -13.97432125	      7.52724794	     -3.78435321
      2.85000000	     -1.24974632	     -4.21392642	    -30.71004064	     -0.51643244	      0.99075622	     -0.21326610	     21.91557002	      8.71379140	    -14.21727078	    -25.71886375	      3.81771626	     -9.06175976	     -5.82100919	     -5.06121646	     -9.47917299	    -43.09791680	      0.92293592	     16.26745507	    -13.92717742	      7.70699205	     -3.75754972
      2.86000000	     -1.33826526	     -4.28703469	    -30.82234493	     -0.50943152	      0.99155598	     -0.20839680	     21.41184482	      8.92265440	    -14.09983156	    -25.73247534	      4.36712309	     -9.21121310	     -4.53152185	     -5.46356086	     -8.77398538	    -45.69624692	     -0.28621859	     16.32985826	    -13.85240569	      7.86310888	     -3.73377286
      2.87000000	     -1.41822463	     -4.40394288	    -30.90692884	     -0.50255098	      0.99241528	     -0.20362032	     20.83693352	      9.16430841	    -14.01257951	    -25.65055822	      4.85801111	     -9.31569787	     -3.20829433	     -5.90022001	     -8.05229234	    -48.26456880	     -1.21095509	     16.30207703	    -13.82672641	      8.05852162	     -3.67198145
      2.88000000	     -1.51628747	     -4.47418317	    -31.01650650	     -0.49586970	      0.99318258	     -0.19887344	     20.31121359	      9.38615877	    -13.87956478	    -25.56860227	      5.35592412	     -9.42903868	     -1.79057272	     -6.30570375	     -7.38309625	    -50.76772177	     -1.84483484	     16.21896312	    -13.77231785	      8.20394019	     -3.58104571
      2.89000000	     -1.57812464	     -4.60933190	    -31.13354027	     -0.48929949	      0.99407261	     -0.19412920	     19.67585555	      9.66168030	    -13.73153562	    -25.39612079	      5.78216308	     -9.51648443	     -0.42560790	     -6.75067674	     -6.74388930	    -53.13061145	     -2.15248765	     16.08345954	    -13.80451216	      8.38257824	     -3.42957865
      2.90000000	     -1.62992040	     -4.71882976	    -31.29568973	     -0.48289619	      0.99496234	     -0.18936077	     19.04031525	      9.92790477	    -13.51885075	    -25.20906696	      6.19526257	     -9.60933114	      0.94981345	     -7.16510096	     -6.16909050	    -55.32068937	     -2.18986168	     15.85867801	    -13.84380338	      8.51239209	     -3.21354646
      2.91000000	     -1.63915347	     -4.83952798	    -31.51161831	     -0.47664770	      0.99593509	     -0.18454327	     18.34891085	     10.20027829	    -13.24524869	    -25.00339534	      6.60494999	     -9.69468016	      2.26501131	     -7.57250844	     -5.67743015	    -57.30010990	     -1.99797182	     15.56188246	    -13.94743420	      8.61015593	     -2.92430589
      2.92000000	     -1.65931751	     -4.90644128	    -31.77330282	     -0.47057536	      0.99690678	     -0.17968645	     17.67377304	     10.45341102	    -12.87840540	    -24.74473127	      6.93235590	     -9.79014545	      3.60391668	     -7.92273875	     -5.20779345	    -59.04880709	     -1.63881879	     15.01204511	    -14.01300262	      8.64101148	     -2.58484166
      2.93000000	     -1.62978064	     -5.00862012	    -32.10200013	     -0.46465619	      0.99800214	     -0.17473492	     16.90935045	     10.72758912	    -12.46528399	    -24.44714401	      7.24025983	     -9.86273962	      4.83577657	     -8.28721662	     -4.81928593	    -60.54529404	     -1.15159636	     14.47425850	    -14.16213493	      8.65201965	     -2.13546169
      2.94000000	     -1.58401769	     -5.09723785	    -32.48963776	     -0.45890728	      0.99913924	     -0.16971665	     16.11953636	     10.99301596	    -11.99227731	    -24.11856666	      7.52180096	     -9.93057468	      6.02201945	     -8.63097669	     -4.48269757	    -61.78941476	     -0.60767843	     13.85004105	    -14.32849885	      8.61837535	     -1.61474319
      2.95000000	     -1.52728130	     -5.17754159	    -32.93325526	     -0.45332490	      1.00030265	     -0.16462603	     15.30351200	     11.25286808	    -11.47431858	    -23.75404176	      7.77419673	     -9.99244923	      7.15925541	     -8.95999607	     -4.18585099	    -62.77885756	     -0.04141766	     13.18339840	    -14.50740946	      8.54695605	     -1.02437463
      2.96000000	     -1.45876205	     -5.24966939	    -33.41914872	     -0.44790207	      1.00146689	     -0.15948508	     14.47177586	     11.49920485	    -10.92173800	    -23.37527680	      8.02306704	    -10.05275073	      8.24728379	     -9.26756221	     -3.90602329	    -63.51864253	      0.52661228	     12.46099020	    -14.69853658	      8.44339579	     -0.40224971
      2.97000000	     -1.40507231	     -5.31941205	    -33.95835320	     -0.44265291	      1.00259266	     -0.15427057	     13.63711275	     11.75553973	    -10.32411627	    -22.96420237	      8.21994762	    -10.10508481	      9.30269358	     -9.57740932	     -3.64616524	    -64.01702223	      1.09313694	     11.79288772	    -14.88255259	      8.32531322	      0.27138156
      2.98000000	     -1.35925701	     -5.38257000	    -34.53259936	     -0.43752509	      1.00366692	     -0.14900898	     12.80037428	     12.00225874	     -9.71983662	    -22.53363227	      8.41475504	    -10.15542874	     10.31703274	     -9.87288437	     -3.38835963	    -64.27349109	      1.66908973	     11.06349717	    -15.05440328	      8.19075571	      0.97585081
      2.99000000	     -1.34037004	     -5.43941648	    -35.15524494	     -0.43255239	      1.00465318	     -0.14368392	     11.97944253	     12.26113403	     -9.04452585	    -22.08344486	      8.54475847	    -10.19524821	     11.30932616	    -10.17155355	     -3.14151567	    -64.30742499	      2.23337815	     10.40138640	    -15.20191244	      8.05375605	      1.69722111
      3.00000000	     -1.32996522	     -5.49943639	    -35.79848172	     -0.42770326	      1.00554807	     -0.13832702	     11.16949678	     12.51527331	     -8.36665119	    -21.64799072	      8.69850243	    -10.23457821	     12.25544164	    -10.46478457	     -2.88455638	    -64.12139431	      2.84123829	      9.60903314	    -15.34833497	      7.91068008	      2.42628788
      3.01000000	     -1.32533989	     -5.55414985	    -36.44871197	     -0.42292213	      1.00635422	     -0.13302103	     10.37216554	     12.74493006	     -7.71472499	    -21.21996473	      8.87588420	    -10.26961543	     13.16094231	    -10.72808666	     -2.60323194	    -63.72393606	      3.48939693	      8.69721978	    -15.48954625	      7.77369029	      3.13235393
      3.02000000	     -1.35115696	     -5.60914725	    -37.12886492	     -0.41825916	      1.00704463	     -0.12767227	      9.59758599	     12.98887068	     -7.01047155	    -20.78977243	      9.01478917	    -10.29701078	     14.03976796	    -11.00371011	     -2.33188103	    -63.13148672	      4.14002634	      7.79779405	    -15.60779495	      7.64474475	      3.83962917
      3.03000000	     -1.39487798	     -5.66534802	    -37.81550743	     -0.41366795	      1.00763424	     -0.12235095	      8.83689492	     13.22942684	     -6.29785258	    -20.35935440	      9.14909626	    -10.31951351	     14.88603722	    -11.27309652	     -2.05448895	    -62.35513032	      4.79564861	      6.87208773	    -15.71358495	      7.53086484	      4.52862317
      3.04000000	     -1.46066961	     -5.72744884	    -38.50923065	     -0.40916205	      1.00812015	     -0.11707632	      8.09703006	     13.47698294	     -5.54628076	    -19.94000348	      9.25785414	    -10.33687195	     15.70675898	    -11.54060217	     -1.76949858	    -61.41665309	      5.41975424	      5.98972119	    -15.81424623	      7.43906645	      5.20450097
